<svg fill="currentColor" xmlns="http://www.w3.org/2000/svg"><path d="m39.526 19.69-2.475-2.896c-.458-.55-.843-1.577-.843-2.31v-3.117A3.552 3.552 0 0 0 32.67 7.83h-3.117c-.733 0-1.778-.385-2.328-.844L24.328 4.51c-1.265-1.081-3.337-1.081-4.602 0l-2.933 2.475c-.55.459-1.577.844-2.31.844h-3.172a3.552 3.552 0 0 0-3.538 3.538v3.117c0 .715-.367 1.742-.825 2.292L4.473 19.69c-1.063 1.283-1.063 3.336 0 4.583l2.475 2.915c.458.532.825 1.576.825 2.291v3.135a3.552 3.552 0 0 0 3.538 3.539h3.19c.715 0 1.76.385 2.31.843l2.897 2.475c1.265 1.082 3.337 1.082 4.602 0l2.896-2.475c.55-.458 1.577-.843 2.31-.843h3.117a3.552 3.552 0 0 0 3.538-3.539V29.5c0-.733.385-1.76.844-2.31l2.475-2.897c1.118-1.247 1.118-3.318.036-4.602ZM27.151 29.774l-1.796-4.034c-.055 0-.11.037-.165.037h-6.417c-.055 0-.11-.018-.165-.037l-1.797 4.034-2.511-1.119 6.416-14.446h2.512l6.417 14.447-2.494 1.118Z" fill="currentColor"/><path d="M19.837 23.026h4.327L22 18.168l-2.163 4.858Z" fill="currentColor"/></svg>