<svg viewBox="0 0 17 21" fill="currentColor" xmlns="http://www.w3.org/2000/svg"><path d="M14.2 11.195c0-2.503 2.067-3.8 2.164-3.8-1.179-1.701-2.953-1.998-3.645-1.998-1.48-.198-2.952.9-3.742.9s-1.968-.9-3.245-.9c-1.676 0-3.148 1-4.035 2.503-1.773 3.097-.497 7.599 1.18 10.092.789 1.197 1.773 2.602 3.147 2.503 1.277 0 1.774-.801 3.246-.801 1.471 0 1.968.801 3.245.801 1.374 0 2.164-1.197 2.953-2.503.984-1.395 1.374-2.8 1.374-2.8-.088 0-2.641-1-2.641-3.997ZM11.735 3.696c.692-.9 1.082-1.999.984-3.196-.984 0-2.163.702-2.855 1.504-.595.702-1.18 1.999-1.082 3.097 1.082.099 2.261-.505 2.953-1.405Z" fill="currentColor"/></svg>