<svg viewBox="0 0 32 18" fill="currentColor" xmlns="http://www.w3.org/2000/svg"><g clip-path="url(#clip0_81_16481)"><path d="M7.60331 16.8983H6.4231V14.5385H26.5716V16.8983H7.60331ZM7.3685 1.72305L6.932 1.48824L7.40146 0.615234L7.83797 0.850043C10.7543 2.42145 13.6422 3.17615 16.49 3.17615C19.4184 3.17615 22.3119 2.3784 25.1567 0.850043L25.5932 0.615234L26.0627 1.48824L25.6262 1.72305C22.634 3.33028 19.5841 4.16957 16.4897 4.16957C13.4806 4.16957 10.4356 3.37589 7.36835 1.72305H7.3685ZM7.34622 6.15204L6.63683 5.89541L7.15115 4.47678L7.86039 4.73401C10.741 5.77635 13.6069 6.27712 16.4517 6.27712C19.3759 6.27712 22.2754 5.7467 25.1406 4.73055L25.8529 4.47934L26.3553 5.90369L25.6431 6.1549C22.6134 7.2293 19.5471 7.79028 16.4517 7.79028C13.4413 7.79028 10.4037 7.2588 7.34667 6.15204H7.34622ZM7.43066 11.1444L6.4681 10.9719L6.81339 9.04681L7.77595 9.21945C10.6254 9.73807 13.516 9.99792 16.4122 9.99582C19.3652 9.99582 22.3037 9.7282 25.2227 9.21569L26.189 9.04696L26.5264 10.9796L25.5601 11.1485C22.5258 11.681 19.4748 11.9593 16.4122 11.9593C13.3999 11.9591 10.3938 11.6864 7.43066 11.1446V11.1444Z" fill="currentColor"/></g><defs><clipPath id="clip0_81_16481"><rect width="32" height="17.9199" fill="currentColor" transform="translate(0 0.0400391)"/></clipPath></defs></svg>