<svg viewBox="0 0 16 18" fill="currentColor" xmlns="http://www.w3.org/2000/svg"><path d="M.278.656C.086.936 0 1.225 0 1.6v14.778c0 .376.096.752.278.944h.096l8.251-8.285v-.192L.278.656Z" fill="currentColor"/><path opacity=".4" d="M11.338 11.858 8.623 9.132v-.193l2.715-2.726h.096l3.282 1.878c.94.569.94 1.417 0 1.975l-3.378 1.792Z" fill="currentColor"/><path opacity=".6" d="m11.433 11.858-2.81-2.823L.37 17.32c.278.376.844.376 1.41 0l9.652-5.462ZM11.436 6.204 1.688.645C1.122.27.652.366.278.645l8.25 8.285 2.908-2.726Z" fill="currentColor"/></svg>