<svg fill="currentColor" xmlns="http://www.w3.org/2000/svg"><path d="M31.881 28.728 24.476 22h-4.969L12.1 28.728c-2.072 1.87-2.75 4.749-1.742 7.352a6.656 6.656 0 0 0 6.233 4.253H27.39a6.638 6.638 0 0 0 6.233-4.253c1.009-2.603.33-5.482-1.741-7.352Zm-6.544 4.529h-6.674a1.248 1.248 0 0 1-1.247-1.247 1.26 1.26 0 0 1 1.247-1.247h6.674c.696 0 1.246.569 1.246 1.247a1.26 1.26 0 0 1-1.246 1.247ZM33.642 7.92a6.656 6.656 0 0 0-6.234-4.254H16.592a6.656 6.656 0 0 0-6.234 4.253c-.99 2.604-.311 5.482 1.76 7.352l7.407 6.728h4.968l7.407-6.728c2.053-1.87 2.732-4.748 1.742-7.352Zm-8.305 5.334h-6.674a1.248 1.248 0 0 1-1.246-1.246 1.26 1.26 0 0 1 1.246-1.247h6.674c.696 0 1.246.568 1.246 1.247a1.26 1.26 0 0 1-1.246 1.246Z" fill="currentColor"/></svg>