<svg fill="currentColor" xmlns="http://www.w3.org/2000/svg"><path d="M22 3.666c-10.12 0-18.333 8.213-18.333 18.333S11.88 40.333 22 40.333s18.333-8.214 18.333-18.334S32.12 3.666 22 3.666Zm-9.442 13.64c.77-1.778 2.219-3.153 4.217-3.777v-1.466c0-.752.623-1.375 1.375-1.375s1.375.623 1.375 1.375v1.081h4.968v-1.081c0-.752.624-1.375 1.375-1.375.752 0 1.375.623 1.375 1.375v1.448c1.999.623 3.447 1.998 4.217 3.777.257.605-.183 1.301-.843 1.301H13.402a.922.922 0 0 1-.844-1.283Zm19.525 8.672c0 4.033-2.75 7.333-7.333 7.333h-5.5c-4.583 0-7.333-3.3-7.333-7.333v-4.639c0-.513.403-.916.916-.916h18.334c.513 0 .916.403.916.916v4.639Z" fill="currentColor"/></svg>