<svg fill="currentColor" xmlns="http://www.w3.org/2000/svg"><path d="M22 8.525c-8.763 0-15.895 7.132-15.895 15.895 0 8.764 7.132 15.914 15.895 15.914 8.764 0 15.895-7.132 15.895-15.895 0-8.764-7.131-15.914-15.895-15.914Zm1.375 15.309c0 .751-.623 1.375-1.375 1.375a1.385 1.385 0 0 1-1.375-1.375v-9.167c0-.752.624-1.375 1.375-1.375.752 0 1.375.623 1.375 1.375v9.167ZM27.298 6.324H16.701c-.733 0-1.32-.586-1.32-1.32a1.33 1.33 0 0 1 1.32-1.338h10.597c.733 0 1.32.587 1.32 1.32a1.33 1.33 0 0 1-1.32 1.338Z" fill="currentColor"/></svg>